# xmcd CD database file
#
# Track frame offsets:
#	150
#	13355
#	25335
#	41138
#	54878
#	66718
#	78083
#	91760
#	103890
#	117905
#	131233
#	143150
#	155705
#	169048
#	183143
#	195830
#	207845
#	222000
#	236025
#	248205
#
# Disc length: 3495 seconds
#
# Revision: 0
# Processed by: cddbd v1.5.1PL0 Copyright (c) Steve Scherf et al.
# Submitted via: CDex 1.50
#
DISCID=1a0da514
DTITLE=Sonora Santanera - Personalidad vol II
DYEAR=1994
DGENRE=Salsa
TTITLE0=Mi razon
TTITLE1=Los aretes de la luna
TTITLE2=Perfume de gardenias
TTITLE3=Botecito de vela
TTITLE4=Me da vergüenza
TTITLE5=Saca la botella
TTITLE6=Cara o cruz
TTITLE7=Ya te conoci
TTITLE8=En l a cantina
TTITLE9=Amor de cabaret
TTITLE10=El botones
TTITLE11=Que ganas tu
TTITLE12=Tita
TTITLE13=Luces de Nueva York
TTITLE14=Carita de palo
TTITLE15=Remolino
TTITLE16=Donde estas Yolanda
TTITLE17=Mariposa fugaz
TTITLE18=Piensalo
TTITLE19=Mi adios
EXTD=YEAR: 1994
EXTT0=
EXTT1=
EXTT2=
EXTT3=
EXTT4=
EXTT5=
EXTT6=
EXTT7=
EXTT8=
EXTT9=
EXTT10=
EXTT11=
EXTT12=
EXTT13=
EXTT14=
EXTT15=
EXTT16=
EXTT17=
EXTT18=
EXTT19=
PLAYORDER=
